<mxfile host="app.diagrams.net" agent="Mozilla/5.0 (Windows NT 10.0; Win64; x64) AppleWebKit/537.36 (KHTML, like Gecko) Chrome/131.0.0.0 Safari/537.36" version="24.8.6">
  <diagram name="Page-1" id="Tl4T8KEhifNbqAkz7StE">
    <mxGraphModel dx="988" dy="527" grid="1" gridSize="10" guides="1" tooltips="1" connect="1" arrows="1" fold="1" page="1" pageScale="1" pageWidth="850" pageHeight="1100" math="0" shadow="0">
      <root>
        <mxCell id="0" />
        <mxCell id="1" parent="0" />
        <mxCell id="CyrW4sCDEha286u60I95-14" style="edgeStyle=orthogonalEdgeStyle;rounded=0;orthogonalLoop=1;jettySize=auto;html=1;entryX=0.5;entryY=0;entryDx=0;entryDy=0;" edge="1" parent="1" source="CyrW4sCDEha286u60I95-1" target="CyrW4sCDEha286u60I95-6">
          <mxGeometry relative="1" as="geometry" />
        </mxCell>
        <mxCell id="CyrW4sCDEha286u60I95-16" style="edgeStyle=orthogonalEdgeStyle;rounded=0;orthogonalLoop=1;jettySize=auto;html=1;exitX=1;exitY=1;exitDx=0;exitDy=0;" edge="1" parent="1" source="CyrW4sCDEha286u60I95-1" target="CyrW4sCDEha286u60I95-1">
          <mxGeometry relative="1" as="geometry">
            <mxPoint x="230" y="60" as="targetPoint" />
            <Array as="points">
              <mxPoint x="250" y="117" />
              <mxPoint x="250" y="60" />
            </Array>
          </mxGeometry>
        </mxCell>
        <mxCell id="CyrW4sCDEha286u60I95-1" value="State = IDLE&lt;div&gt;is&lt;/div&gt;&lt;div&gt;rising edge on CLK&lt;/div&gt;&lt;div&gt;detected?&lt;/div&gt;" style="ellipse;whiteSpace=wrap;html=1;" vertex="1" parent="1">
          <mxGeometry x="90" y="40" width="130" height="90" as="geometry" />
        </mxCell>
        <mxCell id="CyrW4sCDEha286u60I95-28" style="edgeStyle=orthogonalEdgeStyle;rounded=0;orthogonalLoop=1;jettySize=auto;html=1;entryX=0.5;entryY=0;entryDx=0;entryDy=0;" edge="1" parent="1" source="CyrW4sCDEha286u60I95-6" target="CyrW4sCDEha286u60I95-27">
          <mxGeometry relative="1" as="geometry" />
        </mxCell>
        <mxCell id="CyrW4sCDEha286u60I95-6" value="set&amp;nbsp;&lt;div&gt;&#39;r_done = 0&#39;&lt;div&gt;&#39;r_delay_count = 0&#39;&lt;/div&gt;&lt;/div&gt;" style="rounded=1;whiteSpace=wrap;html=1;" vertex="1" parent="1">
          <mxGeometry x="95" y="190" width="120" height="60" as="geometry" />
        </mxCell>
        <mxCell id="CyrW4sCDEha286u60I95-17" value="" style="endArrow=none;html=1;rounded=0;" edge="1" parent="1">
          <mxGeometry width="50" height="50" relative="1" as="geometry">
            <mxPoint x="160" y="170" as="sourcePoint" />
            <mxPoint x="180" y="170" as="targetPoint" />
          </mxGeometry>
        </mxCell>
        <mxCell id="CyrW4sCDEha286u60I95-18" value="" style="endArrow=none;html=1;rounded=0;" edge="1" parent="1">
          <mxGeometry width="50" height="50" relative="1" as="geometry">
            <mxPoint x="180" y="170" as="sourcePoint" />
            <mxPoint x="180" y="140" as="targetPoint" />
          </mxGeometry>
        </mxCell>
        <mxCell id="CyrW4sCDEha286u60I95-19" value="" style="endArrow=none;html=1;rounded=0;" edge="1" parent="1">
          <mxGeometry width="50" height="50" relative="1" as="geometry">
            <mxPoint x="180" y="140" as="sourcePoint" />
            <mxPoint x="200" y="140" as="targetPoint" />
          </mxGeometry>
        </mxCell>
        <mxCell id="CyrW4sCDEha286u60I95-22" value="" style="endArrow=none;startArrow=classic;html=1;rounded=0;endFill=0;" edge="1" parent="1">
          <mxGeometry width="50" height="50" relative="1" as="geometry">
            <mxPoint x="180" y="150" as="sourcePoint" />
            <mxPoint x="180" y="160" as="targetPoint" />
          </mxGeometry>
        </mxCell>
        <mxCell id="CyrW4sCDEha286u60I95-23" value="Detected" style="text;html=1;align=center;verticalAlign=middle;whiteSpace=wrap;rounded=0;" vertex="1" parent="1">
          <mxGeometry x="180" y="140" width="60" height="30" as="geometry" />
        </mxCell>
        <mxCell id="CyrW4sCDEha286u60I95-24" value="Not Detected" style="text;html=1;align=center;verticalAlign=middle;whiteSpace=wrap;rounded=0;labelBackgroundColor=default;" vertex="1" parent="1">
          <mxGeometry x="220" y="70" width="60" height="30" as="geometry" />
        </mxCell>
        <mxCell id="CyrW4sCDEha286u60I95-29" style="edgeStyle=orthogonalEdgeStyle;rounded=0;orthogonalLoop=1;jettySize=auto;html=1;exitX=0;exitY=0.5;exitDx=0;exitDy=0;" edge="1" parent="1" source="CyrW4sCDEha286u60I95-27">
          <mxGeometry relative="1" as="geometry">
            <mxPoint x="90" y="90" as="targetPoint" />
            <mxPoint x="81.25" y="310" as="sourcePoint" />
            <Array as="points">
              <mxPoint x="70" y="310" />
              <mxPoint x="70" y="90" />
              <mxPoint x="90" y="90" />
            </Array>
          </mxGeometry>
        </mxCell>
        <mxCell id="CyrW4sCDEha286u60I95-33" style="edgeStyle=orthogonalEdgeStyle;rounded=0;orthogonalLoop=1;jettySize=auto;html=1;entryX=0.5;entryY=0;entryDx=0;entryDy=0;" edge="1" parent="1" source="CyrW4sCDEha286u60I95-27" target="CyrW4sCDEha286u60I95-35">
          <mxGeometry relative="1" as="geometry">
            <mxPoint x="155" y="390.0000000000001" as="targetPoint" />
          </mxGeometry>
        </mxCell>
        <mxCell id="CyrW4sCDEha286u60I95-27" value="is&lt;div&gt;&amp;nbsp;&#39;r_run_sampler = 1&#39;?&lt;/div&gt;" style="ellipse;whiteSpace=wrap;html=1;" vertex="1" parent="1">
          <mxGeometry x="101.25" y="280" width="107.5" height="60" as="geometry" />
        </mxCell>
        <mxCell id="CyrW4sCDEha286u60I95-32" value="No" style="text;html=1;align=center;verticalAlign=middle;resizable=0;points=[];autosize=1;strokeColor=none;fillColor=none;" vertex="1" parent="1">
          <mxGeometry x="60" y="308" width="40" height="30" as="geometry" />
        </mxCell>
        <mxCell id="CyrW4sCDEha286u60I95-34" value="Yes" style="text;html=1;align=center;verticalAlign=middle;whiteSpace=wrap;rounded=0;" vertex="1" parent="1">
          <mxGeometry x="140" y="340" width="60" height="30" as="geometry" />
        </mxCell>
        <mxCell id="CyrW4sCDEha286u60I95-37" style="edgeStyle=orthogonalEdgeStyle;rounded=0;orthogonalLoop=1;jettySize=auto;html=1;entryX=0.5;entryY=0;entryDx=0;entryDy=0;" edge="1" parent="1" source="CyrW4sCDEha286u60I95-35" target="CyrW4sCDEha286u60I95-36">
          <mxGeometry relative="1" as="geometry" />
        </mxCell>
        <mxCell id="CyrW4sCDEha286u60I95-35" value="set&amp;nbsp;&lt;div&gt;&#39;busy_flag = 0&#39;&lt;div&gt;&#39;State = ARM&#39;&lt;/div&gt;&lt;/div&gt;" style="rounded=1;whiteSpace=wrap;html=1;" vertex="1" parent="1">
          <mxGeometry x="95" y="370" width="120" height="60" as="geometry" />
        </mxCell>
        <mxCell id="CyrW4sCDEha286u60I95-46" style="edgeStyle=orthogonalEdgeStyle;rounded=0;orthogonalLoop=1;jettySize=auto;html=1;entryX=0.5;entryY=0;entryDx=0;entryDy=0;" edge="1" parent="1" source="CyrW4sCDEha286u60I95-36" target="CyrW4sCDEha286u60I95-45">
          <mxGeometry relative="1" as="geometry" />
        </mxCell>
        <mxCell id="CyrW4sCDEha286u60I95-36" value="State = ARM&lt;div&gt;is&lt;/div&gt;&lt;div&gt;rising edge on CLK&lt;/div&gt;&lt;div&gt;detected?&lt;/div&gt;" style="ellipse;whiteSpace=wrap;html=1;" vertex="1" parent="1">
          <mxGeometry x="90" y="460" width="130" height="90" as="geometry" />
        </mxCell>
        <mxCell id="CyrW4sCDEha286u60I95-38" style="edgeStyle=orthogonalEdgeStyle;rounded=0;orthogonalLoop=1;jettySize=auto;html=1;exitX=0.809;exitY=0.892;exitDx=0;exitDy=0;exitPerimeter=0;" edge="1" parent="1" source="CyrW4sCDEha286u60I95-36" target="CyrW4sCDEha286u60I95-36">
          <mxGeometry relative="1" as="geometry">
            <mxPoint x="223" y="476.5" as="targetPoint" />
            <mxPoint x="215" y="533.5" as="sourcePoint" />
            <Array as="points">
              <mxPoint x="250" y="540" />
              <mxPoint x="250" y="476" />
            </Array>
          </mxGeometry>
        </mxCell>
        <mxCell id="CyrW4sCDEha286u60I95-39" value="Not Detected" style="text;html=1;align=center;verticalAlign=middle;whiteSpace=wrap;rounded=0;labelBackgroundColor=default;" vertex="1" parent="1">
          <mxGeometry x="220" y="490" width="60" height="30" as="geometry" />
        </mxCell>
        <mxCell id="CyrW4sCDEha286u60I95-40" value="" style="endArrow=none;html=1;rounded=0;" edge="1" parent="1">
          <mxGeometry width="50" height="50" relative="1" as="geometry">
            <mxPoint x="170" y="590" as="sourcePoint" />
            <mxPoint x="190" y="590" as="targetPoint" />
          </mxGeometry>
        </mxCell>
        <mxCell id="CyrW4sCDEha286u60I95-41" value="" style="endArrow=none;html=1;rounded=0;" edge="1" parent="1">
          <mxGeometry width="50" height="50" relative="1" as="geometry">
            <mxPoint x="190" y="590" as="sourcePoint" />
            <mxPoint x="190" y="560" as="targetPoint" />
          </mxGeometry>
        </mxCell>
        <mxCell id="CyrW4sCDEha286u60I95-42" value="" style="endArrow=none;html=1;rounded=0;" edge="1" parent="1">
          <mxGeometry width="50" height="50" relative="1" as="geometry">
            <mxPoint x="190" y="560" as="sourcePoint" />
            <mxPoint x="210" y="560" as="targetPoint" />
          </mxGeometry>
        </mxCell>
        <mxCell id="CyrW4sCDEha286u60I95-43" value="" style="endArrow=none;startArrow=classic;html=1;rounded=0;endFill=0;" edge="1" parent="1">
          <mxGeometry width="50" height="50" relative="1" as="geometry">
            <mxPoint x="190" y="570" as="sourcePoint" />
            <mxPoint x="190" y="580" as="targetPoint" />
          </mxGeometry>
        </mxCell>
        <mxCell id="CyrW4sCDEha286u60I95-44" value="Detected" style="text;html=1;align=center;verticalAlign=middle;whiteSpace=wrap;rounded=0;" vertex="1" parent="1">
          <mxGeometry x="190" y="560" width="60" height="30" as="geometry" />
        </mxCell>
        <mxCell id="CyrW4sCDEha286u60I95-47" style="edgeStyle=orthogonalEdgeStyle;rounded=0;orthogonalLoop=1;jettySize=auto;html=1;entryX=0.5;entryY=0;entryDx=0;entryDy=0;" edge="1" parent="1" source="CyrW4sCDEha286u60I95-45" target="CyrW4sCDEha286u60I95-50">
          <mxGeometry relative="1" as="geometry">
            <mxPoint x="155" y="730" as="targetPoint" />
          </mxGeometry>
        </mxCell>
        <mxCell id="CyrW4sCDEha286u60I95-69" style="edgeStyle=orthogonalEdgeStyle;rounded=0;orthogonalLoop=1;jettySize=auto;html=1;entryX=0;entryY=0.5;entryDx=0;entryDy=0;" edge="1" parent="1" source="CyrW4sCDEha286u60I95-45" target="CyrW4sCDEha286u60I95-59">
          <mxGeometry relative="1" as="geometry" />
        </mxCell>
        <mxCell id="CyrW4sCDEha286u60I95-45" value="Is &#39;r_delay_count&#39; &amp;lt; 400?" style="ellipse;whiteSpace=wrap;html=1;" vertex="1" parent="1">
          <mxGeometry x="95" y="600" width="120" height="70" as="geometry" />
        </mxCell>
        <mxCell id="CyrW4sCDEha286u60I95-49" value="No" style="text;html=1;align=center;verticalAlign=middle;resizable=0;points=[];autosize=1;strokeColor=none;fillColor=none;" vertex="1" parent="1">
          <mxGeometry x="200" y="640" width="40" height="30" as="geometry" />
        </mxCell>
        <mxCell id="CyrW4sCDEha286u60I95-56" style="edgeStyle=orthogonalEdgeStyle;rounded=0;orthogonalLoop=1;jettySize=auto;html=1;entryX=0;entryY=0.5;entryDx=0;entryDy=0;" edge="1" parent="1" source="CyrW4sCDEha286u60I95-50" target="CyrW4sCDEha286u60I95-36">
          <mxGeometry relative="1" as="geometry">
            <mxPoint x="70" y="640" as="targetPoint" />
            <Array as="points">
              <mxPoint x="70" y="720" />
              <mxPoint x="70" y="505" />
            </Array>
          </mxGeometry>
        </mxCell>
        <mxCell id="CyrW4sCDEha286u60I95-50" value="r_delay_count &amp;lt;= r_delay_count&amp;nbsp; + 1" style="rounded=1;whiteSpace=wrap;html=1;" vertex="1" parent="1">
          <mxGeometry x="95" y="700" width="120" height="40" as="geometry" />
        </mxCell>
        <mxCell id="CyrW4sCDEha286u60I95-55" value="Yes" style="text;html=1;align=center;verticalAlign=middle;resizable=0;points=[];autosize=1;strokeColor=none;fillColor=none;" vertex="1" parent="1">
          <mxGeometry x="150" y="670" width="40" height="30" as="geometry" />
        </mxCell>
        <mxCell id="CyrW4sCDEha286u60I95-57" value="Check again" style="text;html=1;align=center;verticalAlign=middle;whiteSpace=wrap;rounded=0;labelBackgroundColor=default;" vertex="1" parent="1">
          <mxGeometry x="41.25" y="660" width="60" height="30" as="geometry" />
        </mxCell>
        <mxCell id="CyrW4sCDEha286u60I95-59" value="&#39;r_delay_count = 0&#39;&lt;div&gt;State = RUN&lt;/div&gt;" style="rounded=1;whiteSpace=wrap;html=1;" vertex="1" parent="1">
          <mxGeometry x="250" y="605" width="120" height="60" as="geometry" />
        </mxCell>
        <mxCell id="CyrW4sCDEha286u60I95-77" style="edgeStyle=orthogonalEdgeStyle;rounded=0;orthogonalLoop=1;jettySize=auto;html=1;entryX=0.5;entryY=0;entryDx=0;entryDy=0;" edge="1" parent="1" source="CyrW4sCDEha286u60I95-60" target="CyrW4sCDEha286u60I95-76">
          <mxGeometry relative="1" as="geometry" />
        </mxCell>
        <mxCell id="CyrW4sCDEha286u60I95-60" value="State = RUN&lt;div&gt;is&lt;/div&gt;&lt;div&gt;rising edge on CLK&lt;/div&gt;&lt;div&gt;detected?&lt;/div&gt;" style="ellipse;whiteSpace=wrap;html=1;" vertex="1" parent="1">
          <mxGeometry x="490" y="40" width="130" height="90" as="geometry" />
        </mxCell>
        <mxCell id="CyrW4sCDEha286u60I95-62" style="edgeStyle=orthogonalEdgeStyle;rounded=0;orthogonalLoop=1;jettySize=auto;html=1;exitX=1;exitY=1;exitDx=0;exitDy=0;" edge="1" parent="1" source="CyrW4sCDEha286u60I95-60" target="CyrW4sCDEha286u60I95-60">
          <mxGeometry relative="1" as="geometry">
            <mxPoint x="620" y="90" as="targetPoint" />
            <mxPoint x="615" y="154" as="sourcePoint" />
            <Array as="points">
              <mxPoint x="601" y="120" />
              <mxPoint x="660" y="120" />
              <mxPoint x="660" y="60" />
            </Array>
          </mxGeometry>
        </mxCell>
        <mxCell id="CyrW4sCDEha286u60I95-63" value="Not Detected" style="text;html=1;align=center;verticalAlign=middle;whiteSpace=wrap;rounded=0;labelBackgroundColor=default;" vertex="1" parent="1">
          <mxGeometry x="630" y="80" width="60" height="30" as="geometry" />
        </mxCell>
        <mxCell id="CyrW4sCDEha286u60I95-64" value="" style="endArrow=none;html=1;rounded=0;" edge="1" parent="1">
          <mxGeometry width="50" height="50" relative="1" as="geometry">
            <mxPoint x="560" y="160" as="sourcePoint" />
            <mxPoint x="580" y="160" as="targetPoint" />
          </mxGeometry>
        </mxCell>
        <mxCell id="CyrW4sCDEha286u60I95-65" value="" style="endArrow=none;html=1;rounded=0;" edge="1" parent="1">
          <mxGeometry width="50" height="50" relative="1" as="geometry">
            <mxPoint x="580" y="160" as="sourcePoint" />
            <mxPoint x="580" y="130" as="targetPoint" />
          </mxGeometry>
        </mxCell>
        <mxCell id="CyrW4sCDEha286u60I95-66" value="" style="endArrow=none;html=1;rounded=0;" edge="1" parent="1">
          <mxGeometry width="50" height="50" relative="1" as="geometry">
            <mxPoint x="580" y="130" as="sourcePoint" />
            <mxPoint x="600" y="130" as="targetPoint" />
          </mxGeometry>
        </mxCell>
        <mxCell id="CyrW4sCDEha286u60I95-67" value="" style="endArrow=none;startArrow=classic;html=1;rounded=0;endFill=0;" edge="1" parent="1">
          <mxGeometry width="50" height="50" relative="1" as="geometry">
            <mxPoint x="580" y="140" as="sourcePoint" />
            <mxPoint x="580" y="150" as="targetPoint" />
          </mxGeometry>
        </mxCell>
        <mxCell id="CyrW4sCDEha286u60I95-68" value="Detected" style="text;html=1;align=center;verticalAlign=middle;whiteSpace=wrap;rounded=0;" vertex="1" parent="1">
          <mxGeometry x="580" y="130" width="60" height="30" as="geometry" />
        </mxCell>
        <mxCell id="CyrW4sCDEha286u60I95-70" style="edgeStyle=orthogonalEdgeStyle;rounded=0;orthogonalLoop=1;jettySize=auto;html=1;entryX=0;entryY=0.556;entryDx=0;entryDy=0;exitX=0.5;exitY=0;exitDx=0;exitDy=0;entryPerimeter=0;" edge="1" parent="1" target="CyrW4sCDEha286u60I95-60">
          <mxGeometry relative="1" as="geometry">
            <mxPoint x="299.99999999999994" y="605" as="sourcePoint" />
            <mxPoint x="320" y="85" as="targetPoint" />
            <Array as="points">
              <mxPoint x="300" y="90" />
            </Array>
          </mxGeometry>
        </mxCell>
        <mxCell id="CyrW4sCDEha286u60I95-73" value="" style="endArrow=classicThin;dashed=1;html=1;dashPattern=1 3;strokeWidth=2;rounded=0;endFill=1;exitX=1;exitY=0.5;exitDx=0;exitDy=0;entryX=0.5;entryY=1;entryDx=0;entryDy=0;" edge="1" parent="1" source="CyrW4sCDEha286u60I95-59" target="CyrW4sCDEha286u60I95-74">
          <mxGeometry width="50" height="50" relative="1" as="geometry">
            <mxPoint x="295" y="700" as="sourcePoint" />
            <mxPoint x="310" y="710" as="targetPoint" />
            <Array as="points">
              <mxPoint x="380" y="635" />
              <mxPoint x="380" y="600" />
            </Array>
          </mxGeometry>
        </mxCell>
        <mxCell id="CyrW4sCDEha286u60I95-74" value="DDS Output is MUX&#39;ed to ADC Control Acquire input&lt;div&gt;(Separate process, see text)&lt;br&gt;&lt;div&gt;&lt;br&gt;&lt;/div&gt;&lt;div&gt;DDS count flag is set&lt;br&gt;&lt;div&gt;&#39;r_dds_counting = 1&#39;&lt;/div&gt;&lt;/div&gt;&lt;/div&gt;" style="rounded=1;whiteSpace=wrap;html=1;fillStyle=auto;shadow=0;glass=0;fillColor=none;gradientColor=default;dashed=1;dashPattern=12 12;" vertex="1" parent="1">
          <mxGeometry x="320" y="409" width="120" height="141.25" as="geometry" />
        </mxCell>
        <mxCell id="CyrW4sCDEha286u60I95-78" style="edgeStyle=orthogonalEdgeStyle;rounded=0;orthogonalLoop=1;jettySize=auto;html=1;entryX=0;entryY=1;entryDx=0;entryDy=0;exitX=0;exitY=0.5;exitDx=0;exitDy=0;" edge="1" parent="1" source="CyrW4sCDEha286u60I95-76" target="CyrW4sCDEha286u60I95-60">
          <mxGeometry relative="1" as="geometry">
            <mxPoint x="499.0004932909317" y="116.79377669597375" as="targetPoint" />
            <mxPoint x="482.5" y="210" as="sourcePoint" />
            <Array as="points">
              <mxPoint x="450" y="210" />
              <mxPoint x="450" y="117" />
            </Array>
          </mxGeometry>
        </mxCell>
        <mxCell id="CyrW4sCDEha286u60I95-80" style="edgeStyle=orthogonalEdgeStyle;rounded=0;orthogonalLoop=1;jettySize=auto;html=1;" edge="1" parent="1" source="CyrW4sCDEha286u60I95-76">
          <mxGeometry relative="1" as="geometry">
            <mxPoint x="555" y="290" as="targetPoint" />
          </mxGeometry>
        </mxCell>
        <mxCell id="CyrW4sCDEha286u60I95-76" value="Is&amp;nbsp;&lt;div&gt;&#39;r_dds_counting = 0&#39; ?&lt;/div&gt;" style="ellipse;whiteSpace=wrap;html=1;" vertex="1" parent="1">
          <mxGeometry x="492.5" y="170" width="125" height="80" as="geometry" />
        </mxCell>
        <mxCell id="CyrW4sCDEha286u60I95-79" value="No" style="text;html=1;align=center;verticalAlign=middle;resizable=0;points=[];autosize=1;strokeColor=none;fillColor=none;labelBackgroundColor=default;" vertex="1" parent="1">
          <mxGeometry x="430" y="150" width="40" height="30" as="geometry" />
        </mxCell>
        <mxCell id="CyrW4sCDEha286u60I95-81" value="Yes" style="text;html=1;align=center;verticalAlign=middle;resizable=0;points=[];autosize=1;strokeColor=none;fillColor=none;labelBackgroundColor=default;" vertex="1" parent="1">
          <mxGeometry x="535" y="250" width="40" height="30" as="geometry" />
        </mxCell>
        <mxCell id="CyrW4sCDEha286u60I95-84" style="edgeStyle=orthogonalEdgeStyle;rounded=0;orthogonalLoop=1;jettySize=auto;html=1;entryX=0.5;entryY=0;entryDx=0;entryDy=0;" edge="1" parent="1" source="CyrW4sCDEha286u60I95-82" target="CyrW4sCDEha286u60I95-83">
          <mxGeometry relative="1" as="geometry" />
        </mxCell>
        <mxCell id="CyrW4sCDEha286u60I95-82" value="set&amp;nbsp;&lt;div&gt;&#39;State = STOP&#39;&lt;/div&gt;" style="rounded=1;whiteSpace=wrap;html=1;" vertex="1" parent="1">
          <mxGeometry x="495" y="293" width="120" height="37" as="geometry" />
        </mxCell>
        <mxCell id="CyrW4sCDEha286u60I95-93" style="edgeStyle=orthogonalEdgeStyle;rounded=0;orthogonalLoop=1;jettySize=auto;html=1;entryX=0.5;entryY=0;entryDx=0;entryDy=0;" edge="1" parent="1" target="CyrW4sCDEha286u60I95-95">
          <mxGeometry relative="1" as="geometry">
            <mxPoint x="557.5" y="450" as="sourcePoint" />
            <mxPoint x="552.5" y="510" as="targetPoint" />
            <Array as="points">
              <mxPoint x="545" y="450" />
            </Array>
          </mxGeometry>
        </mxCell>
        <mxCell id="CyrW4sCDEha286u60I95-83" value="State = STOP&lt;div&gt;is&lt;/div&gt;&lt;div&gt;rising edge on CLK&lt;/div&gt;&lt;div&gt;detected?&lt;/div&gt;" style="ellipse;whiteSpace=wrap;html=1;" vertex="1" parent="1">
          <mxGeometry x="490" y="360" width="130" height="90" as="geometry" />
        </mxCell>
        <mxCell id="CyrW4sCDEha286u60I95-85" style="edgeStyle=orthogonalEdgeStyle;rounded=0;orthogonalLoop=1;jettySize=auto;html=1;" edge="1" parent="1" source="CyrW4sCDEha286u60I95-83" target="CyrW4sCDEha286u60I95-83">
          <mxGeometry relative="1" as="geometry">
            <mxPoint x="623" y="375" as="targetPoint" />
            <mxPoint x="615" y="432" as="sourcePoint" />
            <Array as="points">
              <mxPoint x="660" y="435" />
              <mxPoint x="660" y="375" />
            </Array>
          </mxGeometry>
        </mxCell>
        <mxCell id="CyrW4sCDEha286u60I95-86" value="Not Detected" style="text;html=1;align=center;verticalAlign=middle;whiteSpace=wrap;rounded=0;labelBackgroundColor=default;" vertex="1" parent="1">
          <mxGeometry x="630" y="390" width="60" height="30" as="geometry" />
        </mxCell>
        <mxCell id="CyrW4sCDEha286u60I95-87" value="" style="endArrow=none;html=1;rounded=0;" edge="1" parent="1">
          <mxGeometry width="50" height="50" relative="1" as="geometry">
            <mxPoint x="550" y="489.52" as="sourcePoint" />
            <mxPoint x="570" y="489.52" as="targetPoint" />
          </mxGeometry>
        </mxCell>
        <mxCell id="CyrW4sCDEha286u60I95-88" value="" style="endArrow=none;html=1;rounded=0;" edge="1" parent="1">
          <mxGeometry width="50" height="50" relative="1" as="geometry">
            <mxPoint x="570" y="489.52" as="sourcePoint" />
            <mxPoint x="570" y="459.5199999999999" as="targetPoint" />
          </mxGeometry>
        </mxCell>
        <mxCell id="CyrW4sCDEha286u60I95-89" value="" style="endArrow=none;html=1;rounded=0;" edge="1" parent="1">
          <mxGeometry width="50" height="50" relative="1" as="geometry">
            <mxPoint x="570" y="459.5199999999999" as="sourcePoint" />
            <mxPoint x="590" y="459.5199999999999" as="targetPoint" />
          </mxGeometry>
        </mxCell>
        <mxCell id="CyrW4sCDEha286u60I95-90" value="" style="endArrow=none;startArrow=classic;html=1;rounded=0;endFill=0;" edge="1" parent="1">
          <mxGeometry width="50" height="50" relative="1" as="geometry">
            <mxPoint x="570" y="469.5199999999999" as="sourcePoint" />
            <mxPoint x="570" y="479.5199999999999" as="targetPoint" />
          </mxGeometry>
        </mxCell>
        <mxCell id="CyrW4sCDEha286u60I95-91" value="Detected" style="text;html=1;align=center;verticalAlign=middle;whiteSpace=wrap;rounded=0;" vertex="1" parent="1">
          <mxGeometry x="570" y="459.5199999999999" width="60" height="30" as="geometry" />
        </mxCell>
        <mxCell id="CyrW4sCDEha286u60I95-94" style="edgeStyle=orthogonalEdgeStyle;rounded=0;orthogonalLoop=1;jettySize=auto;html=1;entryX=0.5;entryY=0;entryDx=0;entryDy=0;" edge="1" parent="1" source="CyrW4sCDEha286u60I95-95" target="CyrW4sCDEha286u60I95-98">
          <mxGeometry relative="1" as="geometry">
            <mxPoint x="545" y="630" as="targetPoint" />
          </mxGeometry>
        </mxCell>
        <mxCell id="CyrW4sCDEha286u60I95-102" style="edgeStyle=orthogonalEdgeStyle;rounded=0;orthogonalLoop=1;jettySize=auto;html=1;entryX=1;entryY=0.5;entryDx=0;entryDy=0;" edge="1" parent="1" source="CyrW4sCDEha286u60I95-95" target="CyrW4sCDEha286u60I95-101">
          <mxGeometry relative="1" as="geometry">
            <Array as="points">
              <mxPoint x="650" y="535" />
              <mxPoint x="650" y="700" />
            </Array>
          </mxGeometry>
        </mxCell>
        <mxCell id="CyrW4sCDEha286u60I95-95" value="Is &#39;r_delay_count&#39; &amp;lt; 400?" style="ellipse;whiteSpace=wrap;html=1;" vertex="1" parent="1">
          <mxGeometry x="485" y="500" width="120" height="70" as="geometry" />
        </mxCell>
        <mxCell id="CyrW4sCDEha286u60I95-96" value="No" style="text;html=1;align=center;verticalAlign=middle;resizable=0;points=[];autosize=1;strokeColor=none;fillColor=none;labelBackgroundColor=default;" vertex="1" parent="1">
          <mxGeometry x="630" y="600" width="40" height="30" as="geometry" />
        </mxCell>
        <mxCell id="CyrW4sCDEha286u60I95-97" style="edgeStyle=orthogonalEdgeStyle;rounded=0;orthogonalLoop=1;jettySize=auto;html=1;entryX=0;entryY=0.5;entryDx=0;entryDy=0;" edge="1" parent="1" source="CyrW4sCDEha286u60I95-98" target="CyrW4sCDEha286u60I95-83">
          <mxGeometry relative="1" as="geometry">
            <mxPoint x="460" y="530" as="targetPoint" />
            <Array as="points">
              <mxPoint x="460" y="610" />
              <mxPoint x="460" y="405" />
            </Array>
          </mxGeometry>
        </mxCell>
        <mxCell id="CyrW4sCDEha286u60I95-98" value="r_delay_count &amp;lt;= r_delay_count&amp;nbsp; + 1" style="rounded=1;whiteSpace=wrap;html=1;" vertex="1" parent="1">
          <mxGeometry x="485" y="600" width="120" height="40" as="geometry" />
        </mxCell>
        <mxCell id="CyrW4sCDEha286u60I95-99" value="Yes" style="text;html=1;align=center;verticalAlign=middle;resizable=0;points=[];autosize=1;strokeColor=none;fillColor=none;" vertex="1" parent="1">
          <mxGeometry x="540" y="570" width="40" height="30" as="geometry" />
        </mxCell>
        <mxCell id="CyrW4sCDEha286u60I95-100" value="Check again" style="text;html=1;align=center;verticalAlign=middle;whiteSpace=wrap;rounded=0;labelBackgroundColor=default;" vertex="1" parent="1">
          <mxGeometry x="430" y="570" width="60" height="30" as="geometry" />
        </mxCell>
        <mxCell id="CyrW4sCDEha286u60I95-104" style="edgeStyle=orthogonalEdgeStyle;rounded=0;orthogonalLoop=1;jettySize=auto;html=1;" edge="1" parent="1" source="CyrW4sCDEha286u60I95-101" target="CyrW4sCDEha286u60I95-1">
          <mxGeometry relative="1" as="geometry">
            <mxPoint x="50" y="60" as="targetPoint" />
            <Array as="points">
              <mxPoint x="330" y="690" />
              <mxPoint x="330" y="760" />
              <mxPoint x="50" y="760" />
              <mxPoint x="50" y="70" />
            </Array>
          </mxGeometry>
        </mxCell>
        <mxCell id="CyrW4sCDEha286u60I95-101" value="&#39;r_delay_count = 0&#39;&lt;div&gt;&#39;busy_flag = 1&#39;&lt;/div&gt;&lt;div&gt;&#39;r_done = 1&#39;&lt;/div&gt;&lt;div&gt;State = IDLE&lt;/div&gt;" style="rounded=1;whiteSpace=wrap;html=1;" vertex="1" parent="1">
          <mxGeometry x="485" y="670" width="120" height="60" as="geometry" />
        </mxCell>
        <mxCell id="CyrW4sCDEha286u60I95-105" value="Start" style="text;html=1;align=center;verticalAlign=middle;whiteSpace=wrap;rounded=0;" vertex="1" parent="1">
          <mxGeometry x="125" y="10" width="60" height="30" as="geometry" />
        </mxCell>
        <mxCell id="CyrW4sCDEha286u60I95-106" value="End" style="text;html=1;align=center;verticalAlign=middle;whiteSpace=wrap;rounded=0;" vertex="1" parent="1">
          <mxGeometry x="510" y="730" width="60" height="30" as="geometry" />
        </mxCell>
      </root>
    </mxGraphModel>
  </diagram>
</mxfile>
